Coordinates
version=1
nRows=13
nColumns=63
inDegrees=yes

Units are S.I. units (second, meters, Newtons, ...)
If the header above contains a line with 'inDegrees', this indicates whether rotational values are in degrees (yes) or radians (no).

endheader
time	pelvis_tilt	pelvis_list	pelvis_rotation	pelvis_tx	pelvis_ty	pelvis_tz	hip_flexion_r	hip_adduction_r	hip_rotation_r	knee_angle_r	knee_angle_r_beta	ankle_angle_r	subtalar_angle_r	mtp_angle_r	hip_flexion_l	hip_adduction_l	hip_rotation_l	knee_angle_l	knee_angle_l_beta	ankle_angle_l	subtalar_angle_l	mtp_angle_l	L5_S1_Flex_Ext	L5_S1_Lat_Bending	L5_S1_axial_rotation	L4_L5_Flex_Ext	L4_L5_Lat_Bending	L4_L5_axial_rotation	L3_L4_Flex_Ext	L3_L4_Lat_Bending	L3_L4_axial_rotation	L2_L3_Flex_Ext	L2_L3_Lat_Bending	L2_L3_axial_rotation	L1_L2_Flex_Ext	L1_L2_Lat_Bending	L1_L2_axial_rotation	L1_T12_Flex_Ext	L1_T12_Lat_Bending	L1_T12_axial_rotation	Abs_r3	Abs_r2	Abs_r1	Abs_t1	Abs_t2	neck_flexion	neck_bending	neck_rotation	arm_flex_r	arm_add_r	arm_rot_r	elbow_flex_r	pro_sup_r	wrist_flex_r	wrist_dev_r	arm_flex_l	arm_add_l	arm_rot_l	elbow_flex_l	pro_sup_l	wrist_flex_l	wrist_dev_l
0.000000	-5.451408	-4.384255	89.056854	-0.005774	1.060037	0.493949	-1.891582	-5.147233	7.247248	0.528760	0.009229	22.345197	-10.126592	0.000000	-0.897353	2.770184	19.205591	1.082930	0.018901	20.868205	-15.246514	0.000000	0.010636	-0.528655	1.141680	0.019752	-0.703111	1.213035	0.017474	-1.285371	1.213035	0.012156	-1.285371	0.998970	0.009877	-1.078033	0.927615	0.006077	-0.818886	0.856260	0.075972	-5.980247	6.349682	0.000000	0.000000	18.495823	4.223143	-1.761417	12.845977	-3.788351	53.933103	36.485852	71.486014	6.506415	24.285617	20.640499	-2.503959	84.099653	42.815933	69.518857	5.565415	9.153051
0.018519	-4.300719	-3.880514	89.378518	-0.006168	1.060070	0.490028	-2.920823	-3.933431	6.267760	0.485061	0.008466	21.927098	-8.994438	0.000000	-1.771183	1.503402	20.137675	0.905696	0.015807	21.143744	-15.851443	0.000000	0.004956	-0.356819	0.968341	0.009204	-0.474569	1.028863	0.008143	-0.867569	1.028863	0.005664	-0.867569	0.847299	0.004602	-0.727624	0.786777	0.002832	-0.552712	0.726256	0.035401	-4.036403	5.385625	0.000000	0.000000	19.017731	2.542078	0.379819	12.398719	-4.363120	57.153772	36.921924	73.234487	6.253785	21.184576	19.847808	-3.253153	82.415073	43.884227	57.791213	2.088519	13.060284
0.037037	-3.357068	-3.427655	89.642866	-0.006288	1.060182	0.486598	-3.818722	-2.926298	5.482430	0.446187	0.007787	21.614382	-8.029837	0.000000	-2.545576	0.453691	20.861134	0.757944	0.013229	21.406080	-16.313272	0.000000	-0.001927	-0.219084	0.833212	-0.003578	-0.291382	0.885288	-0.003166	-0.532680	0.885288	-0.002202	-0.532680	0.729061	-0.001789	-0.446756	0.676985	-0.001101	-0.339361	0.624909	-0.013763	-2.478320	4.634077	0.000000	0.000000	19.338318	1.276940	2.062920	12.078871	-4.763945	60.238474	37.197071	75.027657	5.630869	18.218334	19.132608	-3.939117	80.809729	44.795746	49.719724	-0.131534	16.289019
0.055556	-2.603079	-3.022949	89.853686	-0.006166	1.060359	0.483626	-4.594171	-2.109126	4.876443	0.411881	0.007189	21.397131	-7.222223	0.000000	-3.226746	-0.396506	21.395037	0.637154	0.011120	21.654878	-16.646453	0.000000	-0.009828	-0.112415	0.733062	-0.018251	-0.149512	0.778879	-0.016146	-0.273325	0.778879	-0.011232	-0.273325	0.641429	-0.009126	-0.229236	0.595613	-0.005616	-0.174130	0.549797	-0.070199	-1.271657	4.077072	0.000000	0.000000	19.479924	0.388168	3.329901	11.874166	-5.008971	63.181146	37.328788	76.840364	4.691599	15.397322	18.491186	-4.564349	79.285782	45.565836	44.904045	-1.242417	18.893964
0.074074	-2.021380	-2.663668	90.014765	-0.005836	1.060591	0.481079	-5.256060	-1.465204	4.434981	0.381889	0.006665	21.265427	-6.561028	0.000000	-3.820909	-1.064740	21.758450	0.540807	0.009439	21.889802	-16.865434	0.000000	-0.018561	-0.033775	0.664661	-0.034470	-0.044921	0.706202	-0.030495	-0.082121	0.706202	-0.021214	-0.082121	0.581578	-0.017236	-0.068874	0.540037	-0.010606	-0.052318	0.498496	-0.132582	-0.382071	3.696645	0.000000	0.000000	19.464885	-0.163795	4.222777	11.772332	-5.116340	65.975724	37.334569	78.647448	3.489907	12.731971	17.919827	-5.131348	77.845394	46.209842	42.943834	-1.391807	20.929826
0.092593	-1.594596	-2.347086	90.129892	-0.005329	1.060864	0.478924	-5.813281	-0.977821	4.143229	0.355953	0.006213	21.209352	-6.035686	0.000000	-4.334281	-1.568568	21.970442	0.466381	0.008140	22.110518	-16.984667	0.000000	-0.027943	0.019871	0.624779	-0.051892	0.026428	0.663827	-0.045907	0.048314	0.663827	-0.031936	0.048314	0.546681	-0.025947	0.040520	0.507633	-0.015966	0.030780	0.468584	-0.199591	0.224782	3.474831	0.000000	0.000000	19.315542	-0.418509	4.783560	11.761100	-5.104196	68.616146	37.231907	80.423749	2.079727	10.232712	17.414816	-5.642611	76.490725	46.743112	43.438748	-0.727378	22.451312
0.111111	-1.305353	-2.070474	90.202856	-0.004677	1.061169	0.477129	-6.274725	-0.630267	3.986370	0.333819	0.005826	21.218989	-5.635628	0.000000	-4.773076	-1.925542	22.050079	0.411358	0.007180	22.316689	-17.018601	0.000000	-0.037786	0.051559	0.610184	-0.070172	0.068573	0.648321	-0.062079	0.125360	0.648321	-0.043186	0.125360	0.533911	-0.035088	0.105139	0.495775	-0.021591	0.079865	0.457638	-0.269901	0.583243	3.393663	0.000000	0.000000	19.054231	-0.415531	5.054267	11.828201	-4.990683	71.096349	37.038296	82.144106	0.514989	7.909977	16.972439	-6.100639	75.223936	47.180990	45.988445	0.603196	23.513130
0.129630	-1.136278	-1.831103	90.237444	-0.003912	1.061491	0.475661	-6.649284	-0.405833	3.949588	0.315231	0.005502	21.284420	-5.350289	0.000000	-5.143509	-2.153218	22.016431	0.373216	0.006514	22.507982	-16.981686	0.000000	-0.047906	0.064325	0.617649	-0.088967	0.085552	0.656252	-0.078705	0.156400	0.656252	-0.054752	0.156400	0.540443	-0.044486	0.131171	0.501840	-0.027374	0.099639	0.463236	-0.342190	0.727657	3.435176	0.000000	0.000000	18.703292	-0.194420	5.076912	11.961364	-4.793944	73.410271	36.771230	83.783360	-1.150373	5.774197	16.588981	-6.507928	74.047189	47.538823	50.192581	2.452241	24.169985
0.148148	-1.069996	-1.626248	90.237444	-0.003067	1.061820	0.474488	-6.945847	-0.287806	4.018067	0.299933	0.005235	21.395726	-5.169100	0.000000	-5.451797	-2.269149	21.888563	0.349437	0.006099	22.684061	-16.888373	0.000000	-0.058118	0.061205	0.643941	-0.107932	0.081403	0.684187	-0.095483	0.148814	0.684187	-0.066424	0.148814	0.563448	-0.053969	0.124809	0.523202	-0.033209	0.094807	0.482956	-0.415134	0.692364	3.581405	0.000000	0.000000	18.285064	0.205266	4.893509	12.148320	-4.532122	75.551848	36.448204	85.316351	-2.862429	3.835802	16.260728	-6.866978	72.962643	47.831957	55.650814	4.672081	24.476585
0.166667	-1.089133	-1.453179	90.206644	-0.002174	1.062144	0.473578	-7.173308	-0.259478	4.176989	0.287670	0.005021	21.542991	-5.081495	0.000000	-5.704154	-2.290889	21.685545	0.337500	0.005890	22.844590	-16.753113	0.000000	-0.068237	0.045235	0.685831	-0.126723	0.060163	0.728695	-0.112107	0.109985	0.728695	-0.077988	0.109985	0.600102	-0.063365	0.092244	0.557237	-0.038991	0.070069	0.514373	-0.487411	0.511710	3.814384	0.000000	0.000000	17.821883	0.743967	4.546073	12.376799	-4.223362	77.515018	36.086710	86.717918	-4.567244	2.105224	15.983966	-7.180286	71.972459	48.075738	61.962801	7.115042	24.487637
0.185185	-1.176315	-1.309168	90.148833	-0.001265	1.062450	0.472896	-7.340555	-0.304138	4.411539	0.278185	0.004855	21.716296	-5.076906	0.000000	-5.906796	-2.235993	21.426443	0.334885	0.005845	22.989236	-16.590354	0.000000	-0.078077	0.019451	0.740088	-0.144997	0.025870	0.786344	-0.128273	0.047294	0.786344	-0.089234	0.047294	0.647577	-0.072502	0.039665	0.601322	-0.044613	0.030130	0.555066	-0.557696	0.220035	4.116148	0.000000	0.000000	17.336090	1.382126	4.076618	12.634531	-3.885806	79.293717	35.704244	87.962901	-6.210889	0.592895	15.754979	-7.450352	71.078800	48.285511	68.728200	9.633449	24.257848
0.203704	-1.287778	-1.204007	90.064439	-0.000444	1.062671	0.472312	-7.446886	-0.382739	4.553543	0.282754	0.004935	21.883168	-4.985419	0.000000	-6.051225	-2.144565	21.087807	0.354495	0.006187	23.119186	-16.333058	0.000000	-0.085273	-0.007991	0.798361	-0.158361	-0.010628	0.848259	-0.140096	-0.019428	0.848259	-0.097459	-0.019428	0.698566	-0.079185	-0.016294	0.648668	-0.048725	-0.012377	0.598771	-0.609099	-0.090391	4.440245	0.000000	0.000000	16.901109	2.016087	3.610227	12.955776	-3.561314	81.028247	35.353823	90.019571	-7.364531	-0.783522	15.535147	-7.663720	70.228524	48.586813	75.152132	11.394961	23.817759
0.222222	-1.428688	-1.095599	89.966376	0.000349	1.062872	0.471886	-7.555320	-0.494094	4.950636	0.269425	0.004702	22.021795	-5.244037	0.000000	-6.206445	-2.020077	20.870945	0.343661	0.005998	23.174190	-16.270472	0.000000	-0.093727	-0.038642	0.864061	-0.174060	-0.051394	0.918065	-0.153984	-0.093954	0.918065	-0.107121	-0.093954	0.756053	-0.087035	-0.078799	0.702050	-0.053556	-0.059856	0.648046	-0.669483	-0.437125	4.805648	0.000000	0.000000	16.486305	2.634897	3.098331	13.184909	-3.226718	82.289967	35.008257	91.022735	-8.485189	-1.673253	15.396941	-7.840424	69.559205	48.803271	80.740067	13.267557	23.358993
